<svg width="17" height="14" viewBox="0 0 17 14" fill="none" xmlns="http:
<path d="M15.2493 3.44096C15.2601 3.59197 15.2601 3.74301 15.2601 3.89401C15.2601 8.49995 11.7547 13.8071 5.34785 13.8071C3.37402 13.8071 1.54044 13.2353 -0.00195312 12.243C0.27849 12.2753 0.54811 12.2861 0.839343 12.2861C2.46799 12.2861 3.96725 11.736 5.16448 10.7976C3.63289 10.7652 2.34936 9.76203 1.90713 8.38132C2.12287 8.41366 2.33857 8.43524 2.5651 8.43524C2.87788 8.43524 3.19069 8.39207 3.48189 8.3166C1.88559 7.99297 0.688315 6.59071 0.688315 4.89718V4.85405C1.15209 5.11293 1.69143 5.27473 2.26304 5.29628C1.32467 4.67063 0.709895 3.60276 0.709895 2.39463C0.709895 1.74743 0.882438 1.15416 1.18446 0.636389C2.89942 2.7506 5.47726 4.13128 8.36785 4.28232C8.31393 4.02344 8.28156 3.7538 8.28156 3.48412C8.28156 1.56405 9.83474 -1.52588e-05 11.7654 -1.52588e-05C12.7685 -1.52588e-05 13.6745 0.420668 14.3109 1.10024C15.0982 0.949229 15.8532 0.657971 16.522 0.25887C16.2631 1.0679 15.713 1.74747 14.9904 2.17891C15.6915 2.10344 16.371 1.90923 16.9966 1.63959C16.5221 2.32991 15.9288 2.94474 15.2493 3.44096Z" fill="white"/>
</svg>
