<svg width="15" height="15" viewBox="0 0 15 15" fill="none" xmlns="http://www.w3.org/2000/svg">
<path d="M7.49742 3.62495C5.36813 3.62495 3.65064 5.32827 3.65064 7.43999C3.65064 9.55171 5.36813 11.255 7.49742 11.255C9.6267 11.255 11.3442 9.55171 11.3442 7.43999C11.3442 5.32827 9.6267 3.62495 7.49742 3.62495ZM7.49742 9.92026C6.12142 9.92026 4.99651 8.80796 4.99651 7.43999C4.99651 6.07202 6.11807 4.95972 7.49742 4.95972C8.87677 4.95972 9.99832 6.07202 9.99832 7.43999C9.99832 8.80796 8.87342 9.92026 7.49742 9.92026ZM12.3988 3.4689C12.3988 3.96362 11.997 4.35874 11.5015 4.35874C11.0027 4.35874 10.6043 3.9603 10.6043 3.4689C10.6043 2.97749 11.0061 2.57905 11.5015 2.57905C11.997 2.57905 12.3988 2.97749 12.3988 3.4689ZM14.9466 4.37202C14.8897 3.18003 14.6151 2.12417 13.7346 1.25425C12.8575 0.384326 11.7928 0.112061 10.5909 0.0522949C9.35217 -0.0174316 5.63931 -0.0174316 4.40058 0.0522949C3.20202 0.10874 2.13738 0.381006 1.25687 1.25093C0.376363 2.12085 0.10518 3.17671 0.0449175 4.3687C-0.0253892 5.59722 -0.0253892 9.27944 0.0449175 10.508C0.101832 11.7 0.376363 12.7558 1.25687 13.6257C2.13738 14.4957 3.19867 14.7679 4.40058 14.8277C5.63931 14.8974 9.35217 14.8974 10.5909 14.8277C11.7928 14.7712 12.8575 14.499 13.7346 13.6257C14.6118 12.7558 14.8863 11.7 14.9466 10.508C15.0169 9.27944 15.0169 5.60054 14.9466 4.37202ZM13.3463 11.8261C13.0851 12.4769 12.5796 12.9783 11.92 13.2406C10.9324 13.6291 8.58884 13.5394 7.49742 13.5394C6.40599 13.5394 4.05909 13.6257 3.0748 13.2406C2.4186 12.9816 1.91306 12.4802 1.64858 11.8261C1.25687 10.8466 1.34726 8.52241 1.34726 7.43999C1.34726 6.35757 1.26022 4.03003 1.64858 3.05386C1.90972 2.40308 2.41525 1.90171 3.0748 1.6394C4.06244 1.25093 6.40599 1.34058 7.49742 1.34058C8.58884 1.34058 10.9357 1.25425 11.92 1.6394C12.5762 1.89839 13.0818 2.39976 13.3463 3.05386C13.738 4.03335 13.6476 6.35757 13.6476 7.43999C13.6476 8.52241 13.738 10.85 13.3463 11.8261Z" fill="white"/>
</svg>
